<mxfile host="app.diagrams.net" modified="2020-12-17T21:52:45.315Z" agent="5.0 (Macintosh; Intel Mac OS X 10_13_6) AppleWebKit/605.1.15 (KHTML, like Gecko) Version/13.1.2 Safari/605.1.15" etag="cmvmv3q3cWR7myV8oGv8" version="14.0.5" type="github" pages="2">
  <diagram id="elw99k3kC3_1Q8jx1iOW" name="Eva 2.0 High Level">
    <mxGraphModel dx="1230" dy="963" grid="0" gridSize="10" guides="1" tooltips="1" connect="0" arrows="0" fold="1" page="0" pageScale="1" pageWidth="1400" pageHeight="1700" math="0" shadow="0">
      <root>
        <mxCell id="8GRn8cEL_pyLPgJIwxRR-0" />
        <mxCell id="8GRn8cEL_pyLPgJIwxRR-1" parent="8GRn8cEL_pyLPgJIwxRR-0" />
        <mxCell id="_qIGpLVhdSEVO8uDuWI8-0" value="" style="rounded=1;whiteSpace=wrap;html=1;fontFamily=Helvetica;fontSize=12;fontColor=#0000FF;strokeColor=#B3B3B3;dashed=1;strokeWidth=3;" parent="8GRn8cEL_pyLPgJIwxRR-1" vertex="1">
          <mxGeometry x="27" y="403" width="1331" height="696" as="geometry" />
        </mxCell>
        <mxCell id="SsO4Lzo8B7FafecMUTk7-0" value="" style="rounded=1;whiteSpace=wrap;html=1;fontFamily=Helvetica;fontSize=12;fontColor=#0000FF;strokeColor=#B3B3B3;dashed=1;strokeWidth=3;fillColor=#CCCCCC;" parent="8GRn8cEL_pyLPgJIwxRR-1" vertex="1">
          <mxGeometry x="390" y="417" width="823" height="648" as="geometry" />
        </mxCell>
        <mxCell id="o4EfD3Bi3a884Yv1wwd_-1" value="" style="rounded=1;whiteSpace=wrap;html=1;fontFamily=Helvetica;fontSize=12;fontColor=#0000FF;strokeColor=#B3B3B3;dashed=1;strokeWidth=3;" parent="8GRn8cEL_pyLPgJIwxRR-1" vertex="1">
          <mxGeometry x="45" y="22" width="1310" height="348" as="geometry" />
        </mxCell>
        <mxCell id="H8sk-5zNprzSNOgImhEd-0" value="Nautilus" style="rounded=1;whiteSpace=wrap;html=1;fontSize=12;fontStyle=0;fontFamily=Tahoma;strokeColor=#DAE8FC;fillColor=#66B2FF;" parent="8GRn8cEL_pyLPgJIwxRR-1" vertex="1">
          <mxGeometry x="102" y="90" width="120" height="60" as="geometry" />
        </mxCell>
        <mxCell id="H8sk-5zNprzSNOgImhEd-1" value="Repo 1" style="rounded=1;whiteSpace=wrap;html=1;fontSize=12;fontStyle=0;fontFamily=Tahoma;strokeColor=#DAE8FC;fillColor=#66B2FF;" parent="8GRn8cEL_pyLPgJIwxRR-1" vertex="1">
          <mxGeometry x="100" y="170" width="120" height="60" as="geometry" />
        </mxCell>
        <mxCell id="H8sk-5zNprzSNOgImhEd-2" value="Repo 2" style="rounded=1;whiteSpace=wrap;html=1;fontSize=12;fontStyle=0;fontFamily=Tahoma;strokeColor=#DAE8FC;fillColor=#66B2FF;" parent="8GRn8cEL_pyLPgJIwxRR-1" vertex="1">
          <mxGeometry x="100" y="260" width="120" height="60" as="geometry" />
        </mxCell>
        <mxCell id="4emAReoXgMQfO4xzz9Wq-1" value="Error Table" style="shape=cylinder3;whiteSpace=wrap;html=1;boundedLbl=1;backgroundOutline=1;size=15;fontStyle=0;strokeColor=#FFFFFF;fontColor=#001933;fontFamily=Tahoma;fontSize=12;fillColor=#66B2FF;" parent="8GRn8cEL_pyLPgJIwxRR-1" vertex="1">
          <mxGeometry x="776" y="130" width="110" height="80" as="geometry" />
        </mxCell>
        <mxCell id="b3GpidQnQlCoKcbRUe79-1" style="edgeStyle=none;rounded=0;orthogonalLoop=1;jettySize=auto;html=1;fontFamily=Helvetica;fontSize=22;fontColor=#999999;endArrow=none;endFill=0;" parent="8GRn8cEL_pyLPgJIwxRR-1" edge="1">
          <mxGeometry relative="1" as="geometry">
            <mxPoint x="394" y="204" as="sourcePoint" />
            <mxPoint x="478.9999999999998" y="203.42953020134223" as="targetPoint" />
          </mxGeometry>
        </mxCell>
        <mxCell id="4emAReoXgMQfO4xzz9Wq-2" value="&lt;font color=&quot;#000000&quot;&gt;Ingest&lt;br style=&quot;font-size: 12px&quot;&gt;Queues&lt;/font&gt;" style="whiteSpace=wrap;html=1;aspect=fixed;fontSize=12;fontStyle=0;fontColor=#0000FF;fontFamily=Tahoma;strokeColor=#DAE8FC;fillColor=#66B2FF;" parent="8GRn8cEL_pyLPgJIwxRR-1" vertex="1">
          <mxGeometry x="310" y="167" width="77" height="77" as="geometry" />
        </mxCell>
        <mxCell id="tp_qSCSOZ1XAV19L62_d-0" value="NIFI" style="rounded=0;whiteSpace=wrap;html=1;fontStyle=0;fontFamily=Tahoma;strokeColor=#DAE8FC;fontSize=12;fillColor=#66B2FF;" parent="8GRn8cEL_pyLPgJIwxRR-1" vertex="1">
          <mxGeometry x="481" y="173" width="128" height="60" as="geometry" />
        </mxCell>
        <mxCell id="tp_qSCSOZ1XAV19L62_d-1" value="File Service" style="rounded=0;whiteSpace=wrap;html=1;strokeColor=#FFFF00;fillColor=#FFFF00;" parent="8GRn8cEL_pyLPgJIwxRR-1" vertex="1">
          <mxGeometry x="800.25" y="927.5" width="108.75" height="47" as="geometry" />
        </mxCell>
        <mxCell id="tp_qSCSOZ1XAV19L62_d-2" value="Eva API Gateway" style="rounded=0;whiteSpace=wrap;html=1;strokeColor=#FFFF00;fillColor=#FFFF00;" parent="8GRn8cEL_pyLPgJIwxRR-1" vertex="1">
          <mxGeometry x="752" y="857" width="122" height="57" as="geometry" />
        </mxCell>
        <mxCell id="tp_qSCSOZ1XAV19L62_d-3" value="Catalog Service" style="rounded=0;whiteSpace=wrap;html=1;strokeColor=#FFFF00;fillColor=#FFFF00;" parent="8GRn8cEL_pyLPgJIwxRR-1" vertex="1">
          <mxGeometry x="863" y="997" width="102" height="47" as="geometry" />
        </mxCell>
        <mxCell id="TUChKr8w6d8KDoppHUxN-0" value="Rules Engine" style="rounded=0;whiteSpace=wrap;html=1;fontSize=12;fontStyle=0;fontFamily=Tahoma;strokeColor=#DAE8FC;fillColor=#66B2FF;" parent="8GRn8cEL_pyLPgJIwxRR-1" vertex="1">
          <mxGeometry x="415" y="257" width="70" height="54" as="geometry" />
        </mxCell>
        <mxCell id="TUChKr8w6d8KDoppHUxN-1" value="RCS" style="rounded=0;whiteSpace=wrap;html=1;fontSize=12;fontStyle=0;fontFamily=Tahoma;strokeColor=#DAE8FC;fillColor=#66B2FF;" parent="8GRn8cEL_pyLPgJIwxRR-1" vertex="1">
          <mxGeometry x="500" y="257" width="70" height="53" as="geometry" />
        </mxCell>
        <mxCell id="TUChKr8w6d8KDoppHUxN-2" value="RMM" style="rounded=0;whiteSpace=wrap;html=1;fontSize=12;fontStyle=0;fontFamily=Tahoma;strokeColor=#DAE8FC;fillColor=#66B2FF;" parent="8GRn8cEL_pyLPgJIwxRR-1" vertex="1">
          <mxGeometry x="585" y="257" width="82" height="54" as="geometry" />
        </mxCell>
        <mxCell id="KRypy5MPSIwkOqQzWDco-0" value="RMM Table" style="shape=cylinder3;whiteSpace=wrap;html=1;boundedLbl=1;backgroundOutline=1;size=15;fontStyle=0;fontColor=#001933;fontFamily=Tahoma;fontSize=12;strokeColor=#FFFFFF;fillColor=#66B2FF;" parent="8GRn8cEL_pyLPgJIwxRR-1" vertex="1">
          <mxGeometry x="776" y="231" width="110" height="80" as="geometry" />
        </mxCell>
        <mxCell id="Fogz1AL5jcSiEYsk1wpb-0" value="Disposition &amp;amp; Holds&lt;br&gt;Notification Service" style="rounded=0;whiteSpace=wrap;html=1;fontStyle=0;fontFamily=Tahoma;fillColor=#FFFF00;strokeColor=#FFFF00;fontColor=#001933;" parent="8GRn8cEL_pyLPgJIwxRR-1" vertex="1">
          <mxGeometry x="1033.5" y="233" width="132" height="70" as="geometry" />
        </mxCell>
        <mxCell id="o4EfD3Bi3a884Yv1wwd_-0" value="Scanning Center" style="rounded=0;whiteSpace=wrap;html=1;fontFamily=Helvetica;fontSize=12;shadow=1;fontStyle=0;strokeColor=#DAE8FC;fontColor=#001933;fillColor=#66B2FF;" parent="8GRn8cEL_pyLPgJIwxRR-1" vertex="1">
          <mxGeometry x="70" y="536" width="120" height="60" as="geometry" />
        </mxCell>
        <mxCell id="o4EfD3Bi3a884Yv1wwd_-5" value="Domain 1" style="text;html=1;resizable=0;autosize=1;align=center;verticalAlign=middle;points=[];fillColor=none;strokeColor=none;rounded=0;fontFamily=Tahoma;fontSize=20;fontStyle=1;fontColor=#B3B3B3;" parent="8GRn8cEL_pyLPgJIwxRR-1" vertex="1">
          <mxGeometry x="1157" y="314" width="106" height="28" as="geometry" />
        </mxCell>
        <mxCell id="y9-v0Gyv9dgvpdEKLWp3-0" value="System Z" style="rounded=0;whiteSpace=wrap;html=1;fontFamily=Helvetica;fontSize=12;shadow=1;fontStyle=0;strokeColor=#DAE8FC;fontColor=#001933;fillColor=#66B2FF;" parent="8GRn8cEL_pyLPgJIwxRR-1" vertex="1">
          <mxGeometry x="70" y="629" width="120" height="60" as="geometry" />
        </mxCell>
        <mxCell id="y9-v0Gyv9dgvpdEKLWp3-1" value="External S3 Buckets" style="rounded=0;whiteSpace=wrap;html=1;fontFamily=Helvetica;fontSize=12;shadow=1;fontStyle=0;strokeColor=#DAE8FC;fontColor=#001933;fillColor=#66B2FF;" parent="8GRn8cEL_pyLPgJIwxRR-1" vertex="1">
          <mxGeometry x="70" y="779" width="120" height="60" as="geometry" />
        </mxCell>
        <mxCell id="iPk3lw1UgvvWzOIhn1F7-0" value="Data Processing Queues" style="rounded=0;whiteSpace=wrap;html=1;fontStyle=0;strokeColor=#DAE8FC;fontFamily=Helvetica;fontColor=#001933;shadow=1;fillColor=#66B2FF;" parent="8GRn8cEL_pyLPgJIwxRR-1" vertex="1">
          <mxGeometry x="254" y="587" width="120" height="62" as="geometry" />
        </mxCell>
        <mxCell id="JQuI49Ytckf8pFcLC_Wx-1" value="NIFI" style="rounded=0;whiteSpace=wrap;html=1;fillColor=#FFFF00;strokeColor=#FFFF00;fontColor=#000000;fontFamily=Helvetica;" parent="8GRn8cEL_pyLPgJIwxRR-1" vertex="1">
          <mxGeometry x="478" y="586" width="128" height="63" as="geometry" />
        </mxCell>
        <mxCell id="VbCRLDqnvHzPidaAszwh-1" value="S3 Landing Zone" style="rounded=0;whiteSpace=wrap;html=1;strokeColor=#FFFF00;fontFamily=Helvetica;fontSize=12;fontColor=#000000;fillColor=#FFFF00;" parent="8GRn8cEL_pyLPgJIwxRR-1" vertex="1">
          <mxGeometry x="457" y="777" width="115" height="52" as="geometry" />
        </mxCell>
        <mxCell id="LhIq0DCPOpo1AK3piTM1-0" value="Ingest&lt;br style=&quot;font-size: 13px;&quot;&gt;Queue" style="whiteSpace=wrap;html=1;aspect=fixed;strokeColor=#FFFF00;fontFamily=Helvetica;fontSize=12;fontColor=#000000;rounded=0;fillColor=#FFFF00;" parent="8GRn8cEL_pyLPgJIwxRR-1" vertex="1">
          <mxGeometry x="478" y="682" width="60" height="60" as="geometry" />
        </mxCell>
        <mxCell id="YWgAMOBUbAf68iHupFmZ-0" value="&lt;font style=&quot;font-size: 12px&quot;&gt;Workspace&lt;/font&gt;" style="shape=cylinder3;whiteSpace=wrap;html=1;boundedLbl=1;backgroundOutline=1;size=15;fontFamily=Tahoma;fontSize=12;fontColor=#001933;fontStyle=0;strokeColor=#FFFFFF;fillColor=#66B2FF;" parent="8GRn8cEL_pyLPgJIwxRR-1" vertex="1">
          <mxGeometry x="638" y="769" width="59" height="85" as="geometry" />
        </mxCell>
        <mxCell id="Q_hmxI2UZN9Nb-fGkq-i-0" value="Catalog Storage" style="shape=cylinder3;whiteSpace=wrap;html=1;boundedLbl=1;backgroundOutline=1;size=15;strokeColor=#FFFFFF;fontFamily=Helvetica;fontSize=12;fontColor=#000000;fillColor=#FFFF00;rounded=0;" parent="8GRn8cEL_pyLPgJIwxRR-1" vertex="1">
          <mxGeometry x="1065" y="874" width="72" height="80" as="geometry" />
        </mxCell>
        <mxCell id="Q_hmxI2UZN9Nb-fGkq-i-1" value="Object Storage" style="shape=cylinder3;whiteSpace=wrap;html=1;boundedLbl=1;backgroundOutline=1;size=15;strokeColor=#FFFFFF;fontFamily=Helvetica;fontSize=12;fontColor=#000000;fillColor=#FFFF00;rounded=0;" parent="8GRn8cEL_pyLPgJIwxRR-1" vertex="1">
          <mxGeometry x="1063" y="773" width="73" height="80" as="geometry" />
        </mxCell>
        <mxCell id="Q_hmxI2UZN9Nb-fGkq-i-2" value="Metadata&lt;br style=&quot;font-size: 12px;&quot;&gt;Storage" style="shape=cylinder3;whiteSpace=wrap;html=1;boundedLbl=1;backgroundOutline=1;size=15;fontFamily=Tahoma;fontSize=12;fontColor=#001933;fontStyle=0;strokeColor=#FFFFFF;fillColor=#66B2FF;" parent="8GRn8cEL_pyLPgJIwxRR-1" vertex="1">
          <mxGeometry x="1060" y="662" width="76" height="80" as="geometry" />
        </mxCell>
        <mxCell id="Q_hmxI2UZN9Nb-fGkq-i-3" value="Error Table" style="shape=cylinder3;whiteSpace=wrap;html=1;boundedLbl=1;backgroundOutline=1;size=15;fontFamily=Tahoma;fontSize=12;fontStyle=0;strokeColor=#FFFFFF;fontColor=#001933;fillColor=#66B2FF;" parent="8GRn8cEL_pyLPgJIwxRR-1" vertex="1">
          <mxGeometry x="1058" y="554" width="79" height="80" as="geometry" />
        </mxCell>
        <mxCell id="Q_hmxI2UZN9Nb-fGkq-i-4" value="P&amp;amp;L Storage" style="shape=cylinder3;whiteSpace=wrap;html=1;boundedLbl=1;backgroundOutline=1;size=15;fontFamily=Helvetica;fontSize=12;fontColor=#000000;fillColor=#FFFF00;rounded=0;strokeColor=#FFFFFF;" parent="8GRn8cEL_pyLPgJIwxRR-1" vertex="1">
          <mxGeometry x="1058" y="450" width="81" height="80" as="geometry" />
        </mxCell>
        <mxCell id="i0A42X5kdxcPcSl37FLX-0" value="Pedigree &amp;amp; Lineage Service" style="rounded=0;whiteSpace=wrap;html=1;fillColor=#FFFF00;strokeColor=#FFFF00;" parent="8GRn8cEL_pyLPgJIwxRR-1" vertex="1">
          <mxGeometry x="891" y="468.5" width="102" height="47" as="geometry" />
        </mxCell>
        <mxCell id="AvAlvdCXBIiCQL_vK7Ba-0" value="SQS Queues" style="whiteSpace=wrap;html=1;aspect=fixed;strokeColor=#FFFF00;fontFamily=Helvetica;fontSize=12;fontColor=#000000;rounded=1;fillColor=#FFFF00;" parent="8GRn8cEL_pyLPgJIwxRR-1" vertex="1">
          <mxGeometry x="1253" y="672.5" width="80" height="80" as="geometry" />
        </mxCell>
        <mxCell id="AvAlvdCXBIiCQL_vK7Ba-1" value="UI" style="whiteSpace=wrap;html=1;aspect=fixed;shadow=1;fontFamily=Helvetica;fontSize=14;rounded=0;fontStyle=1;strokeColor=#DAE8FC;fontColor=#001933;fillColor=#66B2FF;" parent="8GRn8cEL_pyLPgJIwxRR-1" vertex="1">
          <mxGeometry x="475" y="954" width="93" height="93" as="geometry" />
        </mxCell>
        <mxCell id="Sk0pl76J8H8ascU4p57v-1" value="Domain 2" style="text;html=1;resizable=0;autosize=1;align=center;verticalAlign=middle;points=[];fillColor=none;strokeColor=none;rounded=0;fontFamily=Tahoma;fontSize=20;fontStyle=1;fontColor=#B3B3B3;" parent="8GRn8cEL_pyLPgJIwxRR-1" vertex="1">
          <mxGeometry x="1198" y="1050" width="106" height="28" as="geometry" />
        </mxCell>
        <mxCell id="Sk0pl76J8H8ascU4p57v-2" value="Eva 2.0" style="text;html=1;resizable=0;autosize=1;align=center;verticalAlign=middle;points=[];fillColor=none;strokeColor=none;rounded=0;fontFamily=Helvetica;fontSize=22;fontStyle=1;fontColor=#666666;" parent="8GRn8cEL_pyLPgJIwxRR-1" vertex="1">
          <mxGeometry x="451" y="439" width="86" height="30" as="geometry" />
        </mxCell>
        <mxCell id="x10ZkcdIIxR5KVXHCJuZ-0" value="" style="strokeWidth=2;html=1;shape=mxgraph.flowchart.annotation_2;align=left;labelPosition=right;pointerEvents=1;rounded=1;shadow=1;fillColor=#66B2FF;fontFamily=Helvetica;fontSize=22;fontColor=#000000;rotation=-180;" parent="8GRn8cEL_pyLPgJIwxRR-1" vertex="1">
          <mxGeometry x="196" y="559" width="50" height="100" as="geometry" />
        </mxCell>
        <mxCell id="x10ZkcdIIxR5KVXHCJuZ-1" value="" style="strokeWidth=2;html=1;shape=mxgraph.flowchart.annotation_2;align=left;labelPosition=right;pointerEvents=1;rounded=1;shadow=1;fillColor=#66B2FF;fontFamily=Helvetica;fontSize=22;fontColor=#000000;rotation=-180;" parent="8GRn8cEL_pyLPgJIwxRR-1" vertex="1">
          <mxGeometry x="235" y="124" width="50" height="166" as="geometry" />
        </mxCell>
        <mxCell id="mZ3fiNAdU3FDvoejI6Ow-0" value="GUIDE*" style="rounded=0;whiteSpace=wrap;html=1;shadow=1;strokeWidth=3;fillColor=#ffffff;fontFamily=Helvetica;fontSize=22;fontColor=#000000;" parent="8GRn8cEL_pyLPgJIwxRR-1" vertex="1">
          <mxGeometry x="35" y="1445" width="150" height="80" as="geometry" />
        </mxCell>
        <mxCell id="mZ3fiNAdU3FDvoejI6Ow-1" value="Enterprise Catalog" style="rounded=0;whiteSpace=wrap;html=1;shadow=1;strokeWidth=3;fontFamily=Helvetica;fontSize=22;" parent="8GRn8cEL_pyLPgJIwxRR-1" vertex="1">
          <mxGeometry x="873" y="1140" width="120" height="80" as="geometry" />
        </mxCell>
        <mxCell id="mZ3fiNAdU3FDvoejI6Ow-2" value="Index Service" style="rounded=0;whiteSpace=wrap;html=1;shadow=1;strokeWidth=3;fontFamily=Helvetica;fontSize=22;" parent="8GRn8cEL_pyLPgJIwxRR-1" vertex="1">
          <mxGeometry x="724" y="1372" width="155" height="78" as="geometry" />
        </mxCell>
        <mxCell id="mZ3fiNAdU3FDvoejI6Ow-3" value="Enterprise Authorization" style="rounded=0;whiteSpace=wrap;html=1;shadow=1;strokeWidth=3;fontFamily=Helvetica;fontSize=22;" parent="8GRn8cEL_pyLPgJIwxRR-1" vertex="1">
          <mxGeometry x="724" y="1267" width="150" height="80" as="geometry" />
        </mxCell>
        <mxCell id="mZ3fiNAdU3FDvoejI6Ow-4" value="SMART" style="rounded=0;whiteSpace=wrap;html=1;shadow=1;strokeWidth=3;fontFamily=Helvetica;fontSize=22;" parent="8GRn8cEL_pyLPgJIwxRR-1" vertex="1">
          <mxGeometry x="543" y="1269.5" width="120" height="75" as="geometry" />
        </mxCell>
        <mxCell id="mZ3fiNAdU3FDvoejI6Ow-5" value="CMT" style="rounded=0;whiteSpace=wrap;html=1;shadow=1;strokeWidth=3;fontFamily=Helvetica;fontSize=22;" parent="8GRn8cEL_pyLPgJIwxRR-1" vertex="1">
          <mxGeometry x="429" y="1170" width="120" height="82" as="geometry" />
        </mxCell>
        <mxCell id="PKbZZqCtAfmhuB_pZ12Z-0" value="*Used by multiple services" style="text;html=1;resizable=0;autosize=1;align=center;verticalAlign=middle;points=[];fillColor=none;strokeColor=none;rounded=0;shadow=1;fontFamily=Helvetica;fontSize=22;fontStyle=2;fontColor=#999999;" parent="8GRn8cEL_pyLPgJIwxRR-1" vertex="1">
          <mxGeometry x="12" y="1655" width="268" height="30" as="geometry" />
        </mxCell>
        <mxCell id="-2MpsNVtfdLoChrFHLcY-0" value="" style="strokeWidth=2;html=1;shape=mxgraph.flowchart.annotation_2;align=left;labelPosition=right;pointerEvents=1;rounded=1;shadow=1;fillColor=#66B2FF;fontFamily=Helvetica;fontSize=22;fontColor=#000000;rotation=90;" parent="8GRn8cEL_pyLPgJIwxRR-1" vertex="1">
          <mxGeometry x="530.5" y="159.5" width="29" height="166" as="geometry" />
        </mxCell>
        <mxCell id="hYZpxrXW_turtQhxQ0qJ-3" style="edgeStyle=none;rounded=0;orthogonalLoop=1;jettySize=auto;html=1;fontFamily=Helvetica;fontSize=22;fontColor=#999999;endArrow=none;endFill=0;" parent="8GRn8cEL_pyLPgJIwxRR-1" edge="1">
          <mxGeometry relative="1" as="geometry">
            <mxPoint x="675" y="283" as="sourcePoint" />
            <mxPoint x="768.9999999999998" y="283.28424936386773" as="targetPoint" />
          </mxGeometry>
        </mxCell>
        <mxCell id="hYZpxrXW_turtQhxQ0qJ-4" style="edgeStyle=none;rounded=0;orthogonalLoop=1;jettySize=auto;html=1;fontFamily=Helvetica;fontSize=22;fontColor=#999999;endArrow=none;endFill=0;exitX=0.465;exitY=0.498;exitDx=0;exitDy=0;exitPerimeter=0;" parent="8GRn8cEL_pyLPgJIwxRR-1" source="o4EfD3Bi3a884Yv1wwd_-1" edge="1">
          <mxGeometry relative="1" as="geometry">
            <mxPoint x="657.0000000000002" y="189.48017811704844" as="sourcePoint" />
            <mxPoint x="744" y="195" as="targetPoint" />
          </mxGeometry>
        </mxCell>
        <mxCell id="L0LfUayfkjiLCGtMfq46-13" value="" style="strokeWidth=1;html=1;shape=mxgraph.flowchart.annotation_1;align=left;pointerEvents=1;rounded=1;shadow=1;fillColor=#66B2FF;fontFamily=Helvetica;fontSize=22;fontColor=#999999;rotation=-90;" parent="8GRn8cEL_pyLPgJIwxRR-1" vertex="1">
          <mxGeometry x="859.25" y="91.25" width="32" height="469.5" as="geometry" />
        </mxCell>
        <mxCell id="8_c3Tt9Frdq-P5RMduP3-0" style="edgeStyle=none;rounded=0;orthogonalLoop=1;jettySize=auto;html=1;fontFamily=Helvetica;fontSize=22;fontColor=#999999;endArrow=none;endFill=0;exitX=0.041;exitY=0.562;exitDx=0;exitDy=0;exitPerimeter=0;" parent="8GRn8cEL_pyLPgJIwxRR-1" edge="1">
          <mxGeometry relative="1" as="geometry">
            <mxPoint x="441.21000000000004" y="804.7719999999999" as="sourcePoint" />
            <mxPoint x="208" y="805" as="targetPoint" />
          </mxGeometry>
        </mxCell>
        <mxCell id="6iJRTpY1ZOH6TDsP827d-0" value="" style="verticalLabelPosition=bottom;shadow=0;dashed=0;align=center;html=1;verticalAlign=top;strokeWidth=1;shape=mxgraph.mockup.markup.line;direction=north;rounded=1;fillColor=#66B2FF;fontFamily=Helvetica;fontSize=22;fontColor=#999999;" parent="8GRn8cEL_pyLPgJIwxRR-1" vertex="1">
          <mxGeometry x="500" y="651" width="20" height="26" as="geometry" />
        </mxCell>
        <mxCell id="6iJRTpY1ZOH6TDsP827d-1" value="" style="verticalLabelPosition=bottom;shadow=0;dashed=0;align=center;html=1;verticalAlign=top;strokeWidth=1;shape=mxgraph.mockup.markup.line;direction=north;rounded=1;fillColor=#66B2FF;fontFamily=Helvetica;fontSize=22;fontColor=#999999;" parent="8GRn8cEL_pyLPgJIwxRR-1" vertex="1">
          <mxGeometry x="497" y="746" width="20" height="25" as="geometry" />
        </mxCell>
        <mxCell id="pXc_XupL8ljSO-Gdw1BL-0" style="edgeStyle=none;rounded=0;orthogonalLoop=1;jettySize=auto;html=1;fontFamily=Helvetica;fontSize=22;fontColor=#999999;endArrow=none;endFill=0;" parent="8GRn8cEL_pyLPgJIwxRR-1" edge="1">
          <mxGeometry relative="1" as="geometry">
            <mxPoint x="580" y="809" as="sourcePoint" />
            <mxPoint x="588" y="809" as="targetPoint" />
            <Array as="points">
              <mxPoint x="618" y="809" />
            </Array>
          </mxGeometry>
        </mxCell>
        <mxCell id="pXc_XupL8ljSO-Gdw1BL-1" style="edgeStyle=none;rounded=0;orthogonalLoop=1;jettySize=auto;html=1;fontFamily=Helvetica;fontSize=22;fontColor=#999999;endArrow=none;endFill=0;exitX=0.041;exitY=0.562;exitDx=0;exitDy=0;exitPerimeter=0;strokeWidth=3;" parent="8GRn8cEL_pyLPgJIwxRR-1" edge="1">
          <mxGeometry relative="1" as="geometry">
            <mxPoint x="457.00000000000006" y="615.0020000000002" as="sourcePoint" />
            <mxPoint x="381.79" y="615" as="targetPoint" />
          </mxGeometry>
        </mxCell>
        <mxCell id="TfyGnHHihUNiANl7MBIq-1" value="" style="edgeStyle=elbowEdgeStyle;elbow=horizontal;endArrow=none;html=1;strokeWidth=1;fontFamily=Helvetica;fontSize=22;fontColor=#999999;endFill=0;strokeColor=#FF8000;" parent="8GRn8cEL_pyLPgJIwxRR-1" edge="1">
          <mxGeometry width="50" height="50" relative="1" as="geometry">
            <mxPoint x="974" y="1018.5" as="sourcePoint" />
            <mxPoint x="1045" y="922" as="targetPoint" />
          </mxGeometry>
        </mxCell>
        <mxCell id="T6dgft-2LP3lvTS5HCdP-1" value="" style="line;strokeWidth=1;direction=south;html=1;rounded=1;fontFamily=Helvetica;fontSize=22;fontColor=#999999;verticalAlign=middle;endFill=0;strokeColor=#FFFF00;" parent="8GRn8cEL_pyLPgJIwxRR-1" vertex="1">
          <mxGeometry x="948" y="526" width="10" height="453" as="geometry" />
        </mxCell>
        <mxCell id="T6dgft-2LP3lvTS5HCdP-2" value="" style="line;strokeWidth=1;html=1;rounded=1;shadow=0;fillColor=#66B2FF;fontFamily=Helvetica;fontSize=22;fontColor=#999999;" parent="8GRn8cEL_pyLPgJIwxRR-1" vertex="1">
          <mxGeometry x="999" y="485" width="43" height="10" as="geometry" />
        </mxCell>
        <mxCell id="C_eaKCtkpU86BVCSOlvi-0" value="" style="edgeStyle=elbowEdgeStyle;elbow=horizontal;endArrow=none;html=1;strokeWidth=1;fontFamily=Helvetica;fontSize=22;fontColor=#999999;endFill=0;strokeColor=#3333FF;" parent="8GRn8cEL_pyLPgJIwxRR-1" edge="1">
          <mxGeometry width="50" height="50" relative="1" as="geometry">
            <mxPoint x="916.5" y="940.5" as="sourcePoint" />
            <mxPoint x="1056" y="702" as="targetPoint" />
          </mxGeometry>
        </mxCell>
        <mxCell id="YIdWpNlQ_M5ASSiT82eI-0" value="" style="edgeStyle=elbowEdgeStyle;elbow=horizontal;endArrow=none;html=1;strokeWidth=1;fontFamily=Helvetica;fontSize=22;fontColor=#999999;endFill=0;entryX=0.023;entryY=0.671;entryDx=0;entryDy=0;entryPerimeter=0;strokeColor=#3333FF;" parent="8GRn8cEL_pyLPgJIwxRR-1" edge="1">
          <mxGeometry width="50" height="50" relative="1" as="geometry">
            <mxPoint x="922" y="955.5" as="sourcePoint" />
            <mxPoint x="1064.679" y="848.6799999999998" as="targetPoint" />
            <Array as="points">
              <mxPoint x="1000" y="900" />
            </Array>
          </mxGeometry>
        </mxCell>
        <mxCell id="z4H9Wl1vq4-Ua8EckgTX-0" value="" style="line;strokeWidth=1;direction=south;html=1;rounded=1;fontFamily=Helvetica;fontSize=22;fontColor=#999999;verticalAlign=middle;strokeColor=#3333FF;endFill=0;" parent="8GRn8cEL_pyLPgJIwxRR-1" vertex="1">
          <mxGeometry x="893" y="528" width="10" height="388.5" as="geometry" />
        </mxCell>
        <mxCell id="3abOW29c_p49u5XupUHu-0" value="" style="line;strokeWidth=1;direction=south;html=1;rounded=1;fillColor=#ffffff;fontFamily=Helvetica;fontSize=22;fontColor=#999999;verticalAlign=middle;strokeColor=#3333FF;endFill=0;" parent="8GRn8cEL_pyLPgJIwxRR-1" vertex="1">
          <mxGeometry x="870" y="979" width="10" height="20" as="geometry" />
        </mxCell>
        <mxCell id="3abOW29c_p49u5XupUHu-2" value="" style="edgeStyle=segmentEdgeStyle;endArrow=none;html=1;strokeColor=#00CC00;strokeWidth=1;fontFamily=Helvetica;fontSize=22;fontColor=#00FF00;endFill=0;" parent="8GRn8cEL_pyLPgJIwxRR-1" edge="1">
          <mxGeometry width="50" height="50" relative="1" as="geometry">
            <mxPoint x="728" y="1255" as="sourcePoint" />
            <mxPoint x="743" y="898" as="targetPoint" />
            <Array as="points">
              <mxPoint x="728" y="898" />
            </Array>
          </mxGeometry>
        </mxCell>
        <mxCell id="xL5923n7-nk6fW1n6V6f-0" value="" style="edgeStyle=segmentEdgeStyle;endArrow=none;html=1;strokeWidth=1;fontFamily=Helvetica;fontSize=22;endFill=0;fontColor=#00FF00;strokeColor=#00CC00;" parent="8GRn8cEL_pyLPgJIwxRR-1" source="SsO4Lzo8B7FafecMUTk7-0" edge="1">
          <mxGeometry width="50" height="50" relative="1" as="geometry">
            <mxPoint x="555" y="944.6627906976744" as="sourcePoint" />
            <mxPoint x="744" y="878" as="targetPoint" />
            <Array as="points">
              <mxPoint x="524" y="878" />
            </Array>
          </mxGeometry>
        </mxCell>
        <mxCell id="7zjQm53CYR00rezUCUQR-5" value="" style="edgeStyle=elbowEdgeStyle;elbow=horizontal;endArrow=none;html=1;strokeColor=#00CC00;strokeWidth=1;fontFamily=Helvetica;fontSize=14;fontColor=#00FF00;endFill=0;" parent="8GRn8cEL_pyLPgJIwxRR-1" edge="1">
          <mxGeometry width="50" height="50" relative="1" as="geometry">
            <mxPoint x="709" y="799" as="sourcePoint" />
            <mxPoint x="750" y="864" as="targetPoint" />
            <Array as="points">
              <mxPoint x="724" y="836" />
            </Array>
          </mxGeometry>
        </mxCell>
        <mxCell id="oBbKrED4byUIZWRZin6X-1" value="" style="edgeStyle=segmentEdgeStyle;endArrow=none;html=1;strokeColor=#00CC00;strokeWidth=1;fontFamily=Helvetica;fontSize=22;fontColor=#00FF00;endFill=0;" parent="8GRn8cEL_pyLPgJIwxRR-1" edge="1">
          <mxGeometry width="50" height="50" relative="1" as="geometry">
            <mxPoint x="824" y="840" as="sourcePoint" />
            <mxPoint x="886" y="485" as="targetPoint" />
            <Array as="points">
              <mxPoint x="824" y="485" />
            </Array>
          </mxGeometry>
        </mxCell>
        <mxCell id="oBbKrED4byUIZWRZin6X-3" value="" style="edgeStyle=segmentEdgeStyle;endArrow=none;html=1;strokeColor=#3333FF;strokeWidth=1;fontFamily=Helvetica;fontSize=22;fontColor=#999999;endFill=0;" parent="8GRn8cEL_pyLPgJIwxRR-1" edge="1">
          <mxGeometry width="50" height="50" relative="1" as="geometry">
            <mxPoint x="785" y="1253" as="sourcePoint" />
            <mxPoint x="800.25" y="958" as="targetPoint" />
            <Array as="points">
              <mxPoint x="785" y="1253" />
              <mxPoint x="785" y="958" />
            </Array>
          </mxGeometry>
        </mxCell>
        <mxCell id="oBbKrED4byUIZWRZin6X-4" value="" style="edgeStyle=elbowEdgeStyle;elbow=horizontal;endArrow=none;html=1;strokeColor=#00CC00;strokeWidth=1;fontFamily=Helvetica;fontSize=14;fontColor=#00FF00;endFill=0;" parent="8GRn8cEL_pyLPgJIwxRR-1" edge="1">
          <mxGeometry width="50" height="50" relative="1" as="geometry">
            <mxPoint x="740" y="885" as="sourcePoint" />
            <mxPoint x="715" y="1407" as="targetPoint" />
            <Array as="points">
              <mxPoint x="689" y="1379" />
            </Array>
          </mxGeometry>
        </mxCell>
        <mxCell id="oBbKrED4byUIZWRZin6X-5" value="" style="verticalLabelPosition=bottom;shadow=0;dashed=0;align=center;html=1;verticalAlign=top;strokeWidth=1;shape=mxgraph.mockup.markup.line;direction=north;rounded=1;fillColor=#66B2FF;fontFamily=Helvetica;fontSize=22;fontColor=#999999;" parent="8GRn8cEL_pyLPgJIwxRR-1" vertex="1">
          <mxGeometry x="511.5" y="1065" width="20" height="88" as="geometry" />
        </mxCell>
        <mxCell id="bSDDatie8y5GvcqhgUNN-4" value="" style="edgeStyle=elbowEdgeStyle;elbow=vertical;endArrow=none;html=1;strokeColor=#00CC00;strokeWidth=1;fontFamily=Helvetica;fontSize=14;fontColor=#00FF00;endFill=0;exitX=0.27;exitY=-0.079;exitDx=0;exitDy=0;exitPerimeter=0;" parent="8GRn8cEL_pyLPgJIwxRR-1" source="tp_qSCSOZ1XAV19L62_d-2" edge="1">
          <mxGeometry width="50" height="50" relative="1" as="geometry">
            <mxPoint x="597.5" y="902" as="sourcePoint" />
            <mxPoint x="559.5" y="320" as="targetPoint" />
            <Array as="points">
              <mxPoint x="673" y="445" />
            </Array>
          </mxGeometry>
        </mxCell>
        <mxCell id="bSDDatie8y5GvcqhgUNN-5" value="" style="edgeStyle=elbowEdgeStyle;elbow=vertical;endArrow=none;html=1;strokeColor=#00CC00;strokeWidth=1;fontFamily=Helvetica;fontSize=14;fontColor=#00FF00;endFill=0;" parent="8GRn8cEL_pyLPgJIwxRR-1" edge="1">
          <mxGeometry width="50" height="50" relative="1" as="geometry">
            <mxPoint x="759" y="856" as="sourcePoint" />
            <mxPoint x="627" y="316" as="targetPoint" />
            <Array as="points">
              <mxPoint x="734" y="472" />
            </Array>
          </mxGeometry>
        </mxCell>
        <mxCell id="jarMSilvyUycNx23DqDR-0" value="" style="edgeStyle=elbowEdgeStyle;elbow=horizontal;endArrow=none;html=1;strokeColor=#00CC00;strokeWidth=1;fontFamily=Helvetica;fontSize=14;fontColor=#00FF00;endFill=0;" parent="8GRn8cEL_pyLPgJIwxRR-1" edge="1">
          <mxGeometry width="50" height="50" relative="1" as="geometry">
            <mxPoint x="880" y="889" as="sourcePoint" />
            <mxPoint x="936" y="984" as="targetPoint" />
            <Array as="points">
              <mxPoint x="936" y="926" />
            </Array>
          </mxGeometry>
        </mxCell>
        <mxCell id="tZDkK5jwySZbS78D0Iar-0" value="" style="line;strokeWidth=2;direction=south;html=1;rounded=1;shadow=0;fontFamily=Helvetica;fontSize=14;fontColor=#00FF00;fillColor=#FF0000;strokeColor=#FF0000;" parent="8GRn8cEL_pyLPgJIwxRR-1" vertex="1">
          <mxGeometry x="580" y="654" width="10" height="596" as="geometry" />
        </mxCell>
        <mxCell id="qzwQYNqn-l1VmCQGiIjA-0" value="" style="line;strokeWidth=2;direction=south;html=1;rounded=1;shadow=0;fillColor=#FF0000;fontFamily=Helvetica;fontSize=14;fontColor=#00FF00;strokeColor=#FFFF00;" parent="8GRn8cEL_pyLPgJIwxRR-1" vertex="1">
          <mxGeometry x="909" y="1052" width="10" height="77" as="geometry" />
        </mxCell>
        <mxCell id="qzwQYNqn-l1VmCQGiIjA-2" value="" style="edgeStyle=elbowEdgeStyle;elbow=vertical;endArrow=none;html=1;strokeWidth=1;fontFamily=Helvetica;fontSize=14;fontColor=#00FF00;strokeColor=#FF0000;endFill=0;" parent="8GRn8cEL_pyLPgJIwxRR-1" target="JQuI49Ytckf8pFcLC_Wx-1" edge="1">
          <mxGeometry width="50" height="50" relative="1" as="geometry">
            <mxPoint x="350" y="254" as="sourcePoint" />
            <mxPoint x="442" y="544" as="targetPoint" />
            <Array as="points">
              <mxPoint x="442" y="492" />
            </Array>
          </mxGeometry>
        </mxCell>
        <mxCell id="95B5-7VB0HA2pm85Qsy9-1" value="" style="edgeStyle=elbowEdgeStyle;elbow=horizontal;endArrow=none;html=1;strokeColor=#FF0000;strokeWidth=1;fontFamily=Helvetica;fontSize=14;fontColor=#00FF00;endFill=0;" parent="8GRn8cEL_pyLPgJIwxRR-1" edge="1">
          <mxGeometry width="50" height="50" relative="1" as="geometry">
            <mxPoint x="629" y="626" as="sourcePoint" />
            <mxPoint x="1056" y="685" as="targetPoint" />
          </mxGeometry>
        </mxCell>
        <mxCell id="95B5-7VB0HA2pm85Qsy9-2" value="" style="edgeStyle=elbowEdgeStyle;elbow=horizontal;endArrow=none;html=1;strokeColor=#FF0000;strokeWidth=1;fontFamily=Helvetica;fontSize=14;fontColor=#00FF00;entryX=-0.014;entryY=0.463;entryDx=0;entryDy=0;entryPerimeter=0;endFill=0;" parent="8GRn8cEL_pyLPgJIwxRR-1" target="Q_hmxI2UZN9Nb-fGkq-i-1" edge="1">
          <mxGeometry width="50" height="50" relative="1" as="geometry">
            <mxPoint x="630" y="636" as="sourcePoint" />
            <mxPoint x="1066" y="696" as="targetPoint" />
            <Array as="points">
              <mxPoint x="742" y="782" />
              <mxPoint x="710" y="728" />
            </Array>
          </mxGeometry>
        </mxCell>
        <mxCell id="95B5-7VB0HA2pm85Qsy9-3" value="" style="edgeStyle=elbowEdgeStyle;elbow=horizontal;endArrow=none;html=1;strokeColor=#FF0000;strokeWidth=1;fontFamily=Helvetica;fontSize=14;fontColor=#00FF00;endFill=0;" parent="8GRn8cEL_pyLPgJIwxRR-1" edge="1">
          <mxGeometry width="50" height="50" relative="1" as="geometry">
            <mxPoint x="627" y="592" as="sourcePoint" />
            <mxPoint x="884" y="508" as="targetPoint" />
            <Array as="points">
              <mxPoint x="726" y="558" />
            </Array>
          </mxGeometry>
        </mxCell>
        <mxCell id="WGszRsOwaPm_QJZ5Lx5x-0" value="" style="edgeStyle=elbowEdgeStyle;elbow=horizontal;endArrow=none;html=1;strokeColor=#FF0000;strokeWidth=1;fontFamily=Helvetica;fontSize=14;fontColor=#00FF00;endFill=0;" parent="8GRn8cEL_pyLPgJIwxRR-1" edge="1">
          <mxGeometry width="50" height="50" relative="1" as="geometry">
            <mxPoint x="629" y="607" as="sourcePoint" />
            <mxPoint x="1056" y="602" as="targetPoint" />
            <Array as="points">
              <mxPoint x="860" y="581" />
            </Array>
          </mxGeometry>
        </mxCell>
        <mxCell id="SsO4Lzo8B7FafecMUTk7-1" value="" style="edgeStyle=elbowEdgeStyle;elbow=vertical;endArrow=none;html=1;strokeColor=#00CC00;strokeWidth=1;fontFamily=Helvetica;fontSize=14;fontColor=#00FF00;endFill=0;" parent="8GRn8cEL_pyLPgJIwxRR-1" target="SsO4Lzo8B7FafecMUTk7-0" edge="1">
          <mxGeometry width="50" height="50" relative="1" as="geometry">
            <mxPoint x="784" y="940" as="sourcePoint" />
            <mxPoint x="559.4999999999995" y="320" as="targetPoint" />
            <Array as="points">
              <mxPoint x="726" y="498" />
            </Array>
          </mxGeometry>
        </mxCell>
        <mxCell id="SsO4Lzo8B7FafecMUTk7-3" value="" style="edgeStyle=segmentEdgeStyle;endArrow=none;html=1;strokeWidth=1;fontFamily=Helvetica;fontSize=14;fontColor=#00FF00;strokeColor=#990099;endFill=0;" parent="8GRn8cEL_pyLPgJIwxRR-1" edge="1">
          <mxGeometry width="50" height="50" relative="1" as="geometry">
            <mxPoint x="903" y="1423" as="sourcePoint" />
            <mxPoint x="1300" y="763" as="targetPoint" />
            <Array as="points">
              <mxPoint x="903" y="1423" />
              <mxPoint x="1300" y="1423" />
            </Array>
          </mxGeometry>
        </mxCell>
        <mxCell id="g_-1xbZSGJ4llTsOHdGe-0" value="" style="edgeStyle=elbowEdgeStyle;elbow=horizontal;endArrow=none;html=1;strokeColor=#990099;strokeWidth=1;fontFamily=Helvetica;fontSize=14;fontColor=#00FF00;endFill=0;" parent="8GRn8cEL_pyLPgJIwxRR-1" edge="1">
          <mxGeometry width="50" height="50" relative="1" as="geometry">
            <mxPoint x="908" y="1398" as="sourcePoint" />
            <mxPoint x="1146" y="813" as="targetPoint" />
            <Array as="points">
              <mxPoint x="1253" y="893" />
            </Array>
          </mxGeometry>
        </mxCell>
        <mxCell id="g_-1xbZSGJ4llTsOHdGe-1" value="" style="edgeStyle=elbowEdgeStyle;elbow=horizontal;endArrow=none;html=1;strokeColor=#990099;strokeWidth=1;fontFamily=Helvetica;fontSize=14;fontColor=#00FF00;endFill=0;" parent="8GRn8cEL_pyLPgJIwxRR-1" edge="1">
          <mxGeometry width="50" height="50" relative="1" as="geometry">
            <mxPoint x="905" y="1378" as="sourcePoint" />
            <mxPoint x="1143" y="707" as="targetPoint" />
            <Array as="points">
              <mxPoint x="1225" y="875" />
            </Array>
          </mxGeometry>
        </mxCell>
        <mxCell id="Vb9UlL-58ri_AxScYlJQ-0" value="" style="edgeStyle=segmentEdgeStyle;endArrow=none;html=1;strokeColor=#990099;strokeWidth=1;fontFamily=Helvetica;fontSize=14;fontColor=#00FF00;endFill=0;" parent="8GRn8cEL_pyLPgJIwxRR-1" source="_qIGpLVhdSEVO8uDuWI8-0" edge="1">
          <mxGeometry width="50" height="50" relative="1" as="geometry">
            <mxPoint x="1454" y="654" as="sourcePoint" />
            <mxPoint x="350" y="161" as="targetPoint" />
            <Array as="points">
              <mxPoint x="1270" y="98" />
              <mxPoint x="350" y="98" />
            </Array>
          </mxGeometry>
        </mxCell>
        <mxCell id="Vb9UlL-58ri_AxScYlJQ-1" value="" style="line;strokeWidth=1;direction=south;html=1;rounded=1;fontFamily=Helvetica;fontSize=14;fontColor=#00FF00;verticalAlign=middle;strokeColor=#990099;endArrow=classic;" parent="8GRn8cEL_pyLPgJIwxRR-1" vertex="1">
          <mxGeometry x="1266" y="402" width="10" height="241" as="geometry" />
        </mxCell>
        <mxCell id="OOmUElffl2DUGrRPXXFI-1" value="" style="edgeStyle=elbowEdgeStyle;elbow=horizontal;endArrow=none;html=1;strokeColor=#990099;strokeWidth=1;fontFamily=Helvetica;fontSize=14;fontColor=#00FF00;endFill=0;" parent="8GRn8cEL_pyLPgJIwxRR-1" source="_qIGpLVhdSEVO8uDuWI8-0" edge="1">
          <mxGeometry width="50" height="50" relative="1" as="geometry">
            <mxPoint x="1256" y="468.5" as="sourcePoint" />
            <mxPoint x="1174" y="267.5" as="targetPoint" />
            <Array as="points">
              <mxPoint x="1297" y="338" />
              <mxPoint x="1297" y="341" />
              <mxPoint x="1256" y="305.5" />
            </Array>
          </mxGeometry>
        </mxCell>
        <mxCell id="OOmUElffl2DUGrRPXXFI-2" value="" style="line;strokeWidth=1;direction=south;html=1;rounded=1;fontFamily=Helvetica;fontSize=14;fontColor=#00FF00;verticalAlign=middle;strokeColor=#990099;endArrow=classic;" parent="8GRn8cEL_pyLPgJIwxRR-1" vertex="1">
          <mxGeometry x="1292" y="402" width="10" height="241" as="geometry" />
        </mxCell>
        <mxCell id="9g-GYjwAPG5GobWHmEZ0-0" value="Eva 2.0 High Level Architecture" style="text;html=1;strokeColor=none;fillColor=none;align=center;verticalAlign=middle;whiteSpace=wrap;rounded=0;fontSize=40;fontStyle=1" vertex="1" parent="8GRn8cEL_pyLPgJIwxRR-1">
          <mxGeometry x="-32" y="-186" width="645" height="20" as="geometry" />
        </mxCell>
      </root>
    </mxGraphModel>
  </diagram>
  <diagram id="6rxUjMsQtcFcToB8YHgT" name="File Service">
    <mxGraphModel dx="2060" dy="1526" grid="0" gridSize="10" guides="1" tooltips="1" connect="1" arrows="1" fold="1" page="0" pageScale="1" pageWidth="850" pageHeight="1100" math="0" shadow="0">
      <root>
        <mxCell id="rdWnOtAYXpx5rYpskT7k-0" />
        <mxCell id="rdWnOtAYXpx5rYpskT7k-1" parent="rdWnOtAYXpx5rYpskT7k-0" />
        <mxCell id="rdWnOtAYXpx5rYpskT7k-2" value="Enterprise Authentication" style="rounded=0;whiteSpace=wrap;html=1;fillColor=#3399FF;" vertex="1" parent="rdWnOtAYXpx5rYpskT7k-1">
          <mxGeometry x="-83" y="347" width="120" height="60" as="geometry" />
        </mxCell>
        <mxCell id="rdWnOtAYXpx5rYpskT7k-3" value="EVA API Gateway" style="rounded=0;whiteSpace=wrap;html=1;fillColor=#3399FF;" vertex="1" parent="rdWnOtAYXpx5rYpskT7k-1">
          <mxGeometry x="-12" y="98" width="120" height="60" as="geometry" />
        </mxCell>
        <mxCell id="rdWnOtAYXpx5rYpskT7k-4" value="File Service*" style="rounded=0;whiteSpace=wrap;html=1;strokeColor=#FFFF00;fillColor=#FFFF00;" vertex="1" parent="rdWnOtAYXpx5rYpskT7k-1">
          <mxGeometry x="152" y="203" width="120" height="60" as="geometry" />
        </mxCell>
        <mxCell id="rdWnOtAYXpx5rYpskT7k-5" value="Catalog&lt;br&gt;Service" style="rounded=0;whiteSpace=wrap;html=1;strokeColor=#FFFF00;fillColor=#FFFF00;" vertex="1" parent="rdWnOtAYXpx5rYpskT7k-1">
          <mxGeometry x="267" y="313" width="120" height="60" as="geometry" />
        </mxCell>
        <mxCell id="rdWnOtAYXpx5rYpskT7k-6" value="Object Storage" style="shape=cylinder3;whiteSpace=wrap;html=1;boundedLbl=1;backgroundOutline=1;size=15;strokeColor=#FFFF00;fillColor=#FFFF00;rounded=0;" vertex="1" parent="rdWnOtAYXpx5rYpskT7k-1">
          <mxGeometry x="484" y="123" width="77" height="80" as="geometry" />
        </mxCell>
        <mxCell id="rdWnOtAYXpx5rYpskT7k-7" value="Catalog Storage" style="shape=cylinder3;whiteSpace=wrap;html=1;boundedLbl=1;backgroundOutline=1;size=15;strokeColor=#FFFF00;fillColor=#FFFF00;rounded=0;" vertex="1" parent="rdWnOtAYXpx5rYpskT7k-1">
          <mxGeometry x="488" y="222" width="78" height="80" as="geometry" />
        </mxCell>
        <mxCell id="rdWnOtAYXpx5rYpskT7k-8" value="Metadata Storage" style="shape=cylinder3;whiteSpace=wrap;html=1;boundedLbl=1;backgroundOutline=1;size=15;fillColor=#3399FF;" vertex="1" parent="rdWnOtAYXpx5rYpskT7k-1">
          <mxGeometry x="484" y="24" width="77" height="80" as="geometry" />
        </mxCell>
        <mxCell id="rdWnOtAYXpx5rYpskT7k-9" value="" style="edgeStyle=elbowEdgeStyle;elbow=vertical;endArrow=classic;html=1;strokeColor=#FFD966;" edge="1" parent="rdWnOtAYXpx5rYpskT7k-1">
          <mxGeometry width="50" height="50" relative="1" as="geometry">
            <mxPoint x="206" y="271" as="sourcePoint" />
            <mxPoint x="42" y="373" as="targetPoint" />
            <Array as="points">
              <mxPoint x="116" y="373" />
            </Array>
          </mxGeometry>
        </mxCell>
        <mxCell id="rdWnOtAYXpx5rYpskT7k-10" value="" style="edgeStyle=elbowEdgeStyle;elbow=vertical;endArrow=classic;html=1;strokeColor=#FFD966;" edge="1" parent="rdWnOtAYXpx5rYpskT7k-1">
          <mxGeometry width="50" height="50" relative="1" as="geometry">
            <mxPoint x="209" y="189" as="sourcePoint" />
            <mxPoint x="471" y="85" as="targetPoint" />
            <Array as="points">
              <mxPoint x="350" y="85" />
            </Array>
          </mxGeometry>
        </mxCell>
        <mxCell id="rdWnOtAYXpx5rYpskT7k-12" value="" style="edgeStyle=elbowEdgeStyle;elbow=horizontal;endArrow=classic;html=1;strokeColor=#FFD966;" edge="1" parent="rdWnOtAYXpx5rYpskT7k-1">
          <mxGeometry width="50" height="50" relative="1" as="geometry">
            <mxPoint x="276" y="222" as="sourcePoint" />
            <mxPoint x="473" y="172" as="targetPoint" />
          </mxGeometry>
        </mxCell>
        <mxCell id="rdWnOtAYXpx5rYpskT7k-13" value="" style="edgeStyle=elbowEdgeStyle;elbow=horizontal;endArrow=classic;html=1;strokeColor=#FFD966;" edge="1" parent="rdWnOtAYXpx5rYpskT7k-1">
          <mxGeometry width="50" height="50" relative="1" as="geometry">
            <mxPoint x="277" y="242" as="sourcePoint" />
            <mxPoint x="474" y="271" as="targetPoint" />
            <Array as="points">
              <mxPoint x="376" y="249" />
            </Array>
          </mxGeometry>
        </mxCell>
        <mxCell id="rdWnOtAYXpx5rYpskT7k-14" value="" style="edgeStyle=elbowEdgeStyle;elbow=horizontal;endArrow=classic;html=1;strokeColor=#00CC00;" edge="1" parent="rdWnOtAYXpx5rYpskT7k-1">
          <mxGeometry width="50" height="50" relative="1" as="geometry">
            <mxPoint x="110" y="128" as="sourcePoint" />
            <mxPoint x="179" y="199" as="targetPoint" />
            <Array as="points">
              <mxPoint x="179" y="153" />
            </Array>
          </mxGeometry>
        </mxCell>
        <mxCell id="rdWnOtAYXpx5rYpskT7k-15" value="" style="edgeStyle=elbowEdgeStyle;elbow=horizontal;endArrow=classic;html=1;strokeColor=#00CC00;" edge="1" parent="rdWnOtAYXpx5rYpskT7k-1">
          <mxGeometry width="50" height="50" relative="1" as="geometry">
            <mxPoint x="113" y="109" as="sourcePoint" />
            <mxPoint x="289" y="305" as="targetPoint" />
            <Array as="points">
              <mxPoint x="289" y="130" />
            </Array>
          </mxGeometry>
        </mxCell>
        <mxCell id="rdWnOtAYXpx5rYpskT7k-16" value="" style="edgeStyle=elbowEdgeStyle;elbow=vertical;endArrow=classic;html=1;strokeColor=#00CC00;" edge="1" parent="rdWnOtAYXpx5rYpskT7k-1">
          <mxGeometry width="50" height="50" relative="1" as="geometry">
            <mxPoint x="43" y="162" as="sourcePoint" />
            <mxPoint x="-4" y="339" as="targetPoint" />
          </mxGeometry>
        </mxCell>
        <mxCell id="leShlDSDKemooVHnEtB3-0" value="" style="edgeStyle=elbowEdgeStyle;elbow=vertical;endArrow=classic;html=1;exitX=1;exitY=0.5;exitDx=0;exitDy=0;" edge="1" parent="rdWnOtAYXpx5rYpskT7k-1" source="rdWnOtAYXpx5rYpskT7k-5">
          <mxGeometry width="50" height="50" relative="1" as="geometry">
            <mxPoint x="397" y="382" as="sourcePoint" />
            <mxPoint x="529" y="311" as="targetPoint" />
            <Array as="points">
              <mxPoint x="463" y="343" />
            </Array>
          </mxGeometry>
        </mxCell>
        <mxCell id="leShlDSDKemooVHnEtB3-1" value="File Service Calls Enterprise Authentication:&lt;br&gt;&lt;ul&gt;&lt;li style=&quot;text-align: left&quot;&gt;Validate User Credentials&lt;/li&gt;&lt;li&gt;&lt;div style=&quot;text-align: left&quot;&gt;Validate Object Attributes&lt;/div&gt;&lt;/li&gt;&lt;/ul&gt;" style="text;html=1;strokeColor=none;fillColor=none;align=center;verticalAlign=middle;whiteSpace=wrap;rounded=0;" vertex="1" parent="rdWnOtAYXpx5rYpskT7k-1">
          <mxGeometry x="-139" y="434" width="242" height="20" as="geometry" />
        </mxCell>
        <mxCell id="leShlDSDKemooVHnEtB3-4" value="File Service Calls Catalog Service:&lt;br&gt;&lt;ul&gt;&lt;li style=&quot;text-align: left&quot;&gt;Obtain policy protection for the files and/or metadata.&lt;/li&gt;&lt;/ul&gt;" style="text;html=1;strokeColor=none;fillColor=none;align=center;verticalAlign=middle;whiteSpace=wrap;rounded=0;" vertex="1" parent="rdWnOtAYXpx5rYpskT7k-1">
          <mxGeometry x="208" y="404" width="242" height="20" as="geometry" />
        </mxCell>
        <mxCell id="leShlDSDKemooVHnEtB3-5" value="File Service Calls Object Store:&lt;br&gt;&lt;ul&gt;&lt;li style=&quot;text-align: left&quot;&gt;POST Objects to S3&lt;/li&gt;&lt;ul&gt;&lt;li style=&quot;text-align: left&quot;&gt;Update P&amp;amp;L Service&lt;/li&gt;&lt;/ul&gt;&lt;li style=&quot;text-align: left&quot;&gt;PUT Objects to S3 (update)&lt;/li&gt;&lt;ul&gt;&lt;li style=&quot;text-align: left&quot;&gt;This will take advantage of S3 versioning.&lt;/li&gt;&lt;li style=&quot;text-align: left&quot;&gt;Update P&amp;amp;L Service&lt;/li&gt;&lt;/ul&gt;&lt;li style=&quot;text-align: left&quot;&gt;&lt;span&gt;DELETE Objects from S3&lt;/span&gt;&lt;br&gt;&lt;/li&gt;&lt;ul&gt;&lt;li style=&quot;text-align: left&quot;&gt;Update P&amp;amp;L Service&lt;/li&gt;&lt;/ul&gt;&lt;li&gt;Objects are stored as the flat file&lt;/li&gt;&lt;/ul&gt;&lt;div style=&quot;text-align: left&quot;&gt;&lt;/div&gt;&lt;div style=&quot;text-align: left&quot;&gt;&lt;br&gt;&lt;/div&gt;&lt;div style=&quot;text-align: left&quot;&gt;&amp;nbsp;&lt;/div&gt;" style="text;html=1;strokeColor=none;fillColor=none;align=center;verticalAlign=middle;whiteSpace=wrap;rounded=0;" vertex="1" parent="rdWnOtAYXpx5rYpskT7k-1">
          <mxGeometry x="584" y="166" width="242" height="194" as="geometry" />
        </mxCell>
        <mxCell id="leShlDSDKemooVHnEtB3-7" value="File Service Calls Metadata Storage:&lt;br&gt;&lt;ul&gt;&lt;li&gt;The metadata about the object is stored separately from the files themselves.&lt;/li&gt;&lt;li&gt;Objects contain the following metadata:&lt;/li&gt;&lt;ul&gt;&lt;li&gt;Object GUIDE ID&lt;/li&gt;&lt;li&gt;Catalog ID (GUIDE ID)&lt;/li&gt;&lt;li&gt;Title&lt;/li&gt;&lt;li&gt;Author&lt;/li&gt;&lt;li&gt;Classification&lt;/li&gt;&lt;li&gt;Text&lt;/li&gt;&lt;li&gt;Originating Source System ID&lt;/li&gt;&lt;li&gt;TBD&lt;/li&gt;&lt;/ul&gt;&lt;li&gt;POST, GET, PUT, DELETE Metadata&lt;/li&gt;&lt;ul&gt;&lt;li&gt;Update P&amp;amp;L&lt;/li&gt;&lt;/ul&gt;&lt;/ul&gt;" style="text;html=1;strokeColor=none;fillColor=none;align=left;verticalAlign=middle;whiteSpace=wrap;rounded=0;" vertex="1" parent="rdWnOtAYXpx5rYpskT7k-1">
          <mxGeometry x="584" y="-47" width="210" height="20" as="geometry" />
        </mxCell>
        <mxCell id="leShlDSDKemooVHnEtB3-8" value="Eva 2.0 File Service" style="text;html=1;strokeColor=none;fillColor=none;align=center;verticalAlign=middle;whiteSpace=wrap;rounded=0;fontSize=40;fontStyle=1" vertex="1" parent="rdWnOtAYXpx5rYpskT7k-1">
          <mxGeometry x="-165" y="-259" width="492" height="20" as="geometry" />
        </mxCell>
      </root>
    </mxGraphModel>
  </diagram>
</mxfile>
